<svg width="885" height="880" viewBox="0 0 885 880" fill="none" xmlns="http://www.w3.org/2000/svg">
<path d="M180.719 245.565C180.719 262.923 194.788 276.992 212.145 276.992C229.503 276.992 243.572 262.923 243.572 245.565C243.572 228.208 229.503 214.139 212.145 214.139C194.788 214.139 180.719 228.208 180.719 245.565Z" fill="#FCFCFC"/>
<path d="M90.6599 175.427V298.225L151.748 262.956C150.159 257.431 149.292 251.601 149.292 245.565C149.292 216.073 169.609 191.336 197.007 184.56V114.028L90.6599 175.427Z" fill="#FCFCFC"/>
<path d="M227.283 184.56C254.681 191.336 274.999 216.073 274.999 245.565C274.999 251.601 274.131 257.431 272.543 262.956L333.629 298.225V175.427L227.283 114.028V184.56Z" fill="#FCFCFC"/>
<path d="M0.182617 123.188V367.943L105.797 428.92V817.785H106.957L105.797 818.455L212.145 879.856L318.492 818.455L257.391 783.179C245.959 795.04 229.92 802.431 212.145 802.431C194.369 802.431 178.331 795.04 166.899 783.179V606.725L212.145 632.849L318.492 571.451L257.391 536.175C245.959 548.035 229.92 555.424 212.145 555.424C194.369 555.424 178.331 548.035 166.899 536.173V464.196L212.145 490.32L424.108 367.943L386.565 346.267L212.145 446.969L166.899 420.845V359.721L212.145 385.844L318.492 324.445L257.391 289.168C245.959 301.029 229.92 308.419 212.145 308.419C194.369 308.419 178.331 301.029 166.899 289.168L105.797 324.445L106.013 324.569H105.797V385.569L37.7239 346.267V144.864L212.145 44.1626L386.565 144.864L424.108 123.188L212.145 0.811986L0.182617 123.188Z" fill="#FCFCFC"/>
<path d="M460.559 123.912V368.665L672.521 491.043L884.485 368.665L846.941 346.991L672.521 447.692L498.101 346.991V145.587L672.521 44.8854L846.941 145.587L884.485 123.912L672.521 1.53474L460.559 123.912Z" fill="#FCFCFC"/>
<path d="M460.559 512.724V757.479L672.521 879.856L884.485 757.479L846.941 735.803L672.521 836.504L498.101 735.803V534.4L672.521 433.697L846.941 534.4L884.485 512.724L672.521 390.347L460.559 512.724Z" fill="#FCFCFC"/>
</svg>
